<?xml version="1.0" encoding="UTF-8" standalone="no"?>
<svg
   xmlns:dc="http://purl.org/dc/elements/1.1/"
   xmlns:cc="http://creativecommons.org/ns#"
   xmlns:rdf="http://www.w3.org/1999/02/22-rdf-syntax-ns#"
   xmlns:svg="http://www.w3.org/2000/svg"
   xmlns="http://www.w3.org/2000/svg"
   xmlns:xlink="http://www.w3.org/1999/xlink"
   id="svg1548"
   version="1.1"
   viewBox="0 0 30240 15120"
   height="640"
   width="1280">
  <metadata
     id="metadata1552">
    <rdf:RDF>
      <cc:Work
         rdf:about="">
        <dc:format>image/svg+xml</dc:format>
        <dc:type
           rdf:resource="http://purl.org/dc/dcmitype/StillImage" />
        <dc:title></dc:title>
      </cc:Work>
    </rdf:RDF>
  </metadata>
  <defs
     id="defs6">
    <polygon
       id="Star7"
       points="0,-9 1.735535,-3.6038755 7.0364833,-5.6114082 3.8997116,-0.89008374 8.7743512,2.0026884 3.1273259,2.4939592 3.9049537,8.1087198 0,4 -3.9049537,8.1087198 -3.1273259,2.4939592 -8.7743512,2.0026884 -3.8997116,-0.89008374 -7.0364833,-5.6114082 -1.735535,-3.6038755 0,-9 " />
    <polygon
       id="Star5"
       points="0,-9 2.351141,-3.236068 8.5595086,-2.7811529 3.8042261,1.236068 5.2900673,7.2811529 0,4 -5.2900673,7.2811529 -3.8042261,1.236068 -8.5595086,-2.7811529 -2.351141,-3.236068 0,-9 " />
  </defs>
  <path
     id="path1534"
     style="fill:#012169;fill-opacity:1"
     d="M 0,0 L 30240,0 L 30240,15120 L 0,15120 L 0,0 z" />
  <use
     xlink:href="#Star7"
     style="fill:#fff"
     id="Commonwealth_Star"
     transform="matrix(252,0,0,252,7560,11340)" />
  <use
     xlink:href="#Star7"
     style="fill:#fff"
     id="Star_Alpha_Crucis"
     transform="matrix(120,0,0,120,22680,12600)" />
  <use
     xlink:href="#Star7"
     style="fill:#fff"
     id="Star_Beta_Crucis"
     transform="matrix(120,0,0,120,18900,6615)" />
  <use
     xlink:href="#Star7"
     style="fill:#fff"
     id="Star_Gamma_Crucis"
     transform="matrix(120,0,0,120,22680,2520)" />
  <use
     xlink:href="#Star7"
     style="fill:#fff"
     id="Star_Delta_Crucis"
     transform="matrix(120,0,0,120,26040,5607)" />
  <use
     xlink:href="#Star5"
     style="fill:#fff"
     id="Star_Epsilon_Crucis"
     transform="matrix(70,0,0,70,24192,8190)" />
  <path
     style="fill:#fff"
     id="White_Cross"
     d="M 6300,0 L 8820,0 L 8820,2520 L 15120,2520 L 15120,5040 L 8820,5040 L 8820,7560 L 6300,7560 L 6300,5040 L 0,5040 L 0,2520 L 6300,2520 L 6300,0 z" />
  <path
     style="fill:#fff"
     id="White_Diagonal"
     d="M 0,0 L 1690.4674,0 L 15120,6714.7663 L 15120,7560 L 13429.533,7560 L 0,845.2337 L 0,0 z" />
  <use
     xlink:href="#White_Diagonal"
     style="fill:#fff"
     id="White_Diagonal_Flipped"
     transform="matrix(-1,0,0,1,15120,0)" />
  <path
     style="fill:#e4002b;fill-opacity:1"
     id="Red_Cross"
     d="M 6804,0 L 8316,0 L 8316,3024 L 15120,3024 L 15120,4536 L 8316,4536 L 8316,7560 L 6804,7560 L 6804,4536 L 0,4536 L 0,3024 L 6804,3024 L 6804,0 z" />
  <path
     style="fill:red"
     id="Red_Diagonals"
     d="M 0,0 L 5040,2520 L 3913.0217,2520 L 0,563.48913 L 0,0 z M 15120,0 L 13993.022,0 L 8953.0217,2520 L 10080,2520 L 15120,0 z" />
  <use
     xlink:href="#Red_Diagonals"
     style="fill:red"
     id="Red_Diagonals_Rotated"
     transform="matrix(-1,0,0,-1,15120,7560)" />
  <path
     transform="scale(23.625)"
     id="path1640"
     d="m 533.76994,266.34298 -104.3331,-52.29271 22.81071,-0.0498 22.81072,-0.0498 82.19987,41.1019 82.19987,41.1019 v 11.29048 c 0,6.20976 -0.30487,11.26805 -0.67749,11.24064 -0.37262,-0.0274 -47.62738,-23.58155 -105.01058,-52.34254 z"
     style="opacity:1;vector-effect:none;fill:#e4002b;fill-opacity:1;stroke-width:0.03823563;stroke-linecap:butt;stroke-linejoin:miter;stroke-miterlimit:4;stroke-dasharray:none;stroke-dashoffset:0;stroke-opacity:1" />
  <path
     transform="scale(23.625)"
     id="path1642"
     d="M 485.89414,53.611856 591.13056,0.867498 h 23.03458 23.03458 L 531.9633,53.611856 426.72689,106.35621 h -23.03458 -23.03458 z"
     style="opacity:1;vector-effect:none;fill:#e4002b;fill-opacity:1;stroke-width:0.03823563;stroke-linecap:butt;stroke-linejoin:miter;stroke-miterlimit:4;stroke-dasharray:none;stroke-dashoffset:0;stroke-opacity:1" />
  <path
     transform="scale(23.625)"
     id="path1644"
     d="M 83.240649,65.080976 0.81298518,23.807011 V 12.286643 0.76627517 L 105.82357,53.258341 c 57.75582,28.870636 105.17996,52.650799 105.38697,52.844809 0.20701,0.19401 -9.95531,0.33002 -22.58292,0.30227 l -22.95931,-0.0505 z"
     style="opacity:1;vector-effect:none;fill:#e4002b;fill-opacity:1;stroke-width:0.03823563;stroke-linecap:butt;stroke-linejoin:miter;stroke-miterlimit:4;stroke-dasharray:none;stroke-dashoffset:0;stroke-opacity:1" />
  <path
     transform="scale(23.625)"
     id="path1646"
     d="m 107.40438,266.79464 105.23641,-52.74436 h 23.03458 23.03458 L 153.47354,266.79464 48.237121,319.53899 H 25.202541 2.1679605 Z"
     style="opacity:1;vector-effect:none;fill:#e4002b;fill-opacity:1;stroke-width:0.03823563;stroke-linecap:butt;stroke-linejoin:miter;stroke-miterlimit:4;stroke-dasharray:none;stroke-dashoffset:0;stroke-opacity:1" />
</svg>
